# AST/ASF file generated using VICON BodyLanguage
# -----------------------------------------------
:version 1.10
:name VICON
:units
  mass 1.0
  length 0.45
  angle deg
:documentation
   .ast/.asf automatically generated from VICON data using
   VICON BodyBuilder and BodyLanguage model FoxedUp or BRILLIANT.MOD
:root
   order TX TY TZ RX RY RZ
   axis XYZ
   position 0 0 0  
   orientation 0 0 0 
:bonedata
  begin
     id 1 
     name lhipjoint
     direction 0.650112 -0.723553 0.232005 
     length 2.45805 
     axis 0 0 0  XYZ
  end
  begin
     id 2 
     name lfemur
     direction 0.34202 -0.939693 0  
     length 7.00073  
     axis 0 0 20  XYZ
    dof rx ry rz
    limits (-160.0 20.0)
           (-70.0 70.0)
           (-60.0 70.0)
  end
  begin
     id 3 
     name ltibia
     direction 0.34202 -0.939693 0   
     length 7.8748   
     axis 0 0 20   XYZ
    dof rx
    limits (-10.0 170.0)
  end
  begin
     id 4 
     name lfoot
     direction 0.0542825 -0.14914 0.987325   
     length 1.75978   
     axis -90 7.62852e-016 20   XYZ
    dof rx rz
    limits (-45.0 90.0)
           (-70.0 20.0)
  end
  begin
     id 5 
     name ltoes
     direction 1.53509e-011 -4.21906e-011 1   
     length 0.893912   
     axis -90 7.62852e-016 20   XYZ
    dof rx
    limits (-90.0 20.0)
  end
  begin
     id 6 
     name rhipjoint
     direction -0.637897 -0.733345 0.235145   
     length 2.42522  
     axis 0 0 0  XYZ 
  end
  begin
     id 7 
     name rfemur
     direction -0.34202 -0.939693 0   
     length 7.02549   
     axis 0 0 -20   XYZ
    dof rx ry rz
    limits (-160.0 20.0)
           (-70.0 70.0)
           (-70.0 60.0)
  end
  begin
     id 8 
     name rtibia
     direction -0.34202 -0.939693 0   
     length 7.71512   
     axis 0 0 -20   XYZ
    dof rx
    limits (-10.0 170.0)
 end
 begin
     id 9 
     name rfoot
     direction -0.0822618 -0.226012 0.970645   
     length 1.90014  
     axis -90 -7.62852e-016 -20   XYZ
    dof rx rz
    limits (-45.0 90.0)
           (-20.0 70.0)
  end
  begin
     id 10 
     name rtoes
     direction -1.53542e-011 -4.21872e-011 1   
     length 0.957341   
     axis -90 -7.62852e-016 -20   XYZ
    dof rx
    limits (-90.0 20.0)
  end
  begin
     id 11 
     name lowerback
     direction -0.0022947 0.999774 -0.0211557   
     length 1.89909   
     axis 0 0 0   XYZ
    dof rx ry rz
    limits (-20.0 45.0)
           (-30.0 30.0)
           (-30.0 30.0)
  end
  begin
     id 12 
     name upperback
     direction 0.0107737 0.998635 0.0511027   
     length 1.8853   
     axis 0 0 0   XYZ
    dof rx ry rz
    limits (-20.0 45.0)
           (-30.0 30.0)
           (-30.0 30.0)
  end
  begin
     id 13 
     name thorax
     direction 0.011824 0.998136 0.0598754   
     length 1.88911   
     axis 0 0 0   XYZ
    dof rx ry rz
    limits (-20.0 45.0)
           (-30.0 30.0)
           (-30.0 30.0)
  end
  begin
     id 14 
     name lowerneck
     direction -0.0685355 0.990319 0.120714   
     length 1.91222   
     axis 0 0 0   XYZ
    dof rx ry rz
    limits (-20.0 45.0)
           (-30.0 30.0)
           (-30.0 30.0)
  end
  begin
     id 15 
     name upperneck
     direction 0.0886204 0.955665 -0.280805   
     length 1.92526   
     axis 0 0 0   XYZ
    dof rx ry rz
    limits (-20.0 45.0)
           (-30.0 30.0)
           (-30.0 30.0)
  end
  begin
     id 16
     name head
     direction 0.0233423 0.993502 -0.111393  
     length 1.96056  
     axis 0 0 0   XYZ
    dof rx ry rz
    limits (-20.0 45.0)
           (-30.0 30.0)
           (-30.0 30.0)
  end
  begin
     id 17 
     name lclavicle
     direction 0.941873 0.32922 0.0670041  
     length 3.31705  
     axis 0 0 0   XYZ
    dof ry rz
    limits (-20.0 10.0)
           (0.0 20.0)
  end
  begin
     id 18 
     name lhumerus
     direction 1 -4.4898e-011 3.38707e-028   
     length 5.29277   
     axis 180 -30 -90   XYZ
    dof rx ry rz
    limits (-60.0 90.0)
           (-90.0 90.0)
           (-90.0 90.0)
  end
  begin
     id 19
     name lradius
     direction 1 -4.48952e-011 1.63213e-028   
     length 2.85226   
     axis 180 -30 -90   XYZ
    dof rx
    limits (-10.0 170.0)
  end
  begin
     id 20
     name lwrist
     direction 1 -4.49001e-011 1.27856e-027   
     length 1.42613   
     axis -1.61767e-015 90 90   XYZ
    dof ry
    limits (-180.0 0.0)
 end
  begin
     id 21 
     name lhand
     direction 1 -4.48976e-011 2.55931e-027   
     length 0.602097   
     axis -1.63363e-015 90 90   XYZ
    dof rx rz
    limits (-90.0 90.0)
           (-45.0 45.0)
  end
  begin
     id 22 
     name lfingers
     direction 1 -4.48986e-011 5.11684e-027   
     length 0.485426   
     axis -3.26723e-015 90 90   XYZ
    dof rx
    limits (0.0 90.0)
  end
  begin
     id 23
     name lthumb
     direction 0.707107 -6.34915e-011 0.707107   
     length 0.696978   
     axis -90 45 -2.25915e-014   XYZ
    dof rx rz
    limits (-45.0 45.0)
           (-45.0 45.0)
  end
  begin
     id 24 
     name rclavicle
     direction -0.939974 0.327078 0.0973096   
     length 3.10337  
     axis 0 0 0   XYZ 
    dof ry rz
    limits (-10.0 20.0)
           (-20.0 0.0)
  end
  begin
     id 25 
     name rhumerus
     direction -1 -4.48975e-011 1.83745e-027  
     length 5.13304   
     axis 180 30 90   XYZ
    dof rx ry rz
    limits (-90.0 60.0)
           (-90.0 90.0)
           (-90.0 90.0)
  end
  begin
     id 26 
     name rradius
     direction -1 -4.48977e-011 7.1775e-029   
     length 2.74305   
     axis 180 30 90   XYZ
    dof rx
    limits (-10.0 170.0)
  end
  begin
     id 27 
     name rwrist
     direction -1 -4.48977e-011 1.27963e-027   
     length 1.37152   
     axis -1.61767e-015 -90 -90   XYZ
    dof ry
    limits (-180.0 0.0)
  end
  begin
     id 28
     name rhand
     direction -1 -4.4888e-011 2.56782e-027   
     length 0.767976   
     axis -1.63363e-015 -90 -90   XYZ
    dof rx rz
    limits (-90.0 90.0)
           (-45.0 45.0)
  end
  begin
     id 29
     name rfingers
     direction -1 -4.48947e-011 5.12384e-027   
     length 0.619162   
     axis -3.26723e-015 -90 -90   XYZ
    dof rx
    limits (0.0 90.0)
  end
  begin
     id 30
     name rthumb
     direction -0.707107 -6.34857e-011 0.707107   
     length 0.888997   
     axis -90 -45 2.25915e-014   XYZ
    dof rx rz
    limits (-45.0 45.0)
           (-45.0 45.0)
  end
:hierarchy
  begin
    root lhipjoint rhipjoint lowerback
    lhipjoint lfemur
    lfemur ltibia
    ltibia lfoot
    lfoot ltoes
    rhipjoint rfemur
    rfemur rtibia
    rtibia rfoot
    rfoot rtoes
    lowerback upperback
    upperback thorax
    thorax lowerneck lclavicle rclavicle
    lowerneck upperneck
    upperneck head
    lclavicle lhumerus
    lhumerus lradius
    lradius lwrist
    lwrist lhand lthumb
    lhand lfingers
    rclavicle rhumerus
    rhumerus rradius
    rradius rwrist
    rwrist rhand rthumb
    rhand rfingers
  end

#!OML:ASF F:\VICON\USERDATA\INSTALL\rory3\rory3.ASF
:FULLY-SPECIFIED
:DEGREES
704
root -0.177419 16.3859 0.0433048 -14.1985 6.7488 -0.565842
lowerback -8.13759 -1.55541 -3.30856
upperback 3.0804 -1.70764 -0.0168146
thorax 7.92605 -1.00069 1.5871
lowerneck 1.33955 -8.83345 -22.05
upperneck 35.0687 -14.5281 10.7047
head 14.441 -8.3666 6.29227
rclavicle -2.16178e-014 1.17283e-014
rhumerus 4.44497 -13.3286 -21.5768
rradius 106.575
rwrist 5.11548
rhand -10.1192 11.1649
rfingers 7.12502
rthumb 15.8688 -18.2049
lclavicle -2.16178e-014 1.17283e-014
lhumerus 16.4698 4.30976 24.3526
lradius 96.7086
lwrist 15.4156
lhand -9.47905 22.7483
lfingers 7.12502
lthumb 16.4853 52.0679
rfemur 5.81213 0.0393562 20.2935
rtibia 37.4201
rfoot -28.1744 -9.15517
rtoes -16.8686
lfemur 1.59867 -5.70924 -17.185
ltibia 39.7094
lfoot -26.0529 -3.65545
ltoes -19.9418
705
root -0.182921 16.3828 0.037085 -14.1736 6.81953 -0.347726
lowerback -8.13299 -1.51978 -3.60326
upperback 3.17375 -1.61706 -0.121387
thorax 8.02589 -0.970855 1.65447
lowerneck 1.35316 -8.80293 -22.0665
upperneck 35.2277 -14.4382 10.5591
head 14.4838 -8.34725 6.25276
rclavicle -1.54555e-014 -1.64991e-014
rhumerus 3.51611 -12.3432 -22.0437
rradius 106.069
rwrist 5.03978
rhand -9.8438 11.2591
rfingers 7.12502
rthumb 16.1341 -18.0893
lclavicle -1.54555e-014 -1.64991e-014
lhumerus 17.5289 5.53275 24.4511
lradius 97.1484
lwrist 15.839
lhand -9.89329 22.8179
lfingers 7.12502
lthumb 16.0864 52.1702
rfemur 5.70046 -0.0572268 20.0151
rtibia 37.5919
rfoot -28.265 -9.08618
rtoes -16.4384
lfemur 1.58532 -5.68361 -17.4094
ltibia 39.6675
lfoot -26.0284 -3.55918
ltoes -20.461
706
root -0.189873 16.3814 0.0315188 -14.1568 6.8491 -0.261563
lowerback -8.12743 -1.4345 -3.7886
upperback 3.20858 -1.47493 -0.203121
thorax 8.05547 -0.909429 1.69347
lowerneck 1.51447 -8.74319 -22.0657
upperneck 35.3948 -14.3541 10.457
head 14.5023 -8.3311 6.23629
rclavicle 6.11263e-015 -5.96354e-015
rhumerus 2.43027 -11.3561 -22.5151
rradius 105.437
rwrist 5.21369
rhand -9.7327 11.4256
rfingers 7.12502
rthumb 16.241 -17.9141
lclavicle 6.11263e-015 -5.96354e-015
lhumerus 18.729 6.69369 24.5406
lradius 97.5002
lwrist 16.1518
lhand -10.2443 22.6913
lfingers 7.12502
lthumb 15.7484 52.0705
rfemur 5.58895 -0.167139 19.8955
rtibia 37.7373
rfoot -28.3032 -9.07084
rtoes -16.1877
lfemur 1.55943 -5.672 -17.4786
ltibia 39.6368
lfoot -25.9962 -3.42451
ltoes -21.1516
707
root -0.196816 16.3827 0.0259768 -14.1258 6.83582 -0.247939
lowerback -8.09542 -1.42641 -4.06114
upperback 3.15523 -1.44024 -0.142566
thorax 7.98779 -0.906478 1.91729
lowerneck 1.71305 -8.6327 -22.0895
upperneck 35.6631 -14.1142 10.0776
head 14.506 -8.27993 6.13181
rclavicle 1.66979e-014 7.95139e-016
rhumerus 1.57285 -10.1512 -22.8947
rradius 104.706
rwrist 5.63672
rhand -9.82532 11.6518
rfingers 7.12502
rthumb 16.1519 -17.6953
lclavicle 1.66979e-014 7.95139e-016
lhumerus 19.6612 7.89087 24.7104
lradius 97.8571
lwrist 16.3359
lhand -10.2384 22.7852
lfingers 7.12502
lthumb 15.754 52.164
rfemur 5.47509 -0.203903 19.8907
rtibia 37.8361
rfoot -28.3563 -8.99077
rtoes -16.1886
lfemur 1.48833 -5.63471 -17.4504
ltibia 39.6353
lfoot -25.9823 -3.41626
ltoes -21.4656
708
root -0.203204 16.383 0.0213358 -14.0916 6.79915 -0.16098
lowerback -8.06775 -1.39947 -4.37169
upperback 3.15061 -1.37551 -0.0750371
thorax 7.97418 -0.892422 2.17365
lowerneck 1.89516 -8.58493 -22.14
upperneck 35.827 -13.9282 9.63199
head 14.4749 -8.25654 5.98725
rclavicle -2.60905e-014 8.94531e-015
rhumerus 0.730302 -9.10664 -23.0732
rradius 104.06
rwrist 5.9271
rhand -9.83667 11.7863
rfingers 7.12502
rthumb 16.1409 -17.5615
lclavicle -2.60905e-014 8.94531e-015
lhumerus 20.6509 9.17694 25.0193
lradius 98.1973
lwrist 16.4315
lhand -10.0388 23.1018
lfingers 7.12502
lthumb 15.9463 52.4654
rfemur 5.37125 -0.210355 19.7975
rtibia 37.9185
rfoot -28.3491 -8.93676
rtoes -16.3619
lfemur 1.44847 -5.58893 -17.5107
ltibia 39.6198
lfoot -25.9477 -3.45701
ltoes -21.2793
709
root -0.20827 16.3824 0.0163646 -14.0646 6.75568 -0.155996
lowerback -8.04471 -1.3902 -4.52387
upperback 3.21169 -1.35221 0.0113457
thorax 8.03227 -0.893577 2.35383
lowerneck 1.88334 -8.52803 -22.3948
upperneck 35.9562 -13.7376 9.40889
head 14.5111 -8.22903 5.96405
rclavicle 4.72114e-016 -2.10712e-014
rhumerus 0.100074 -8.16226 -23.356
rradius 103.39
rwrist 6.1159
rhand -10.194 11.8717
rfingers 7.12502
rthumb 15.7968 -17.5037
lclavicle 4.72114e-016 -2.10712e-014
lhumerus 21.6508 10.6082 25.3294
lradius 98.4736
lwrist 16.4333
lhand -10.1276 23.4146
lfingers 7.12502
lthumb 15.8607 52.785
rfemur 5.28334 -0.205435 19.8028
rtibia 37.9864
rfoot -28.3163 -8.92773
rtoes -16.6661
lfemur 1.4352 -5.60604 -17.5045
ltibia 39.5787
lfoot -25.9077 -3.45623
ltoes -21.0359
710
root -0.213856 16.3827 0.0114349 -14.0415 6.80373 0.0237024
lowerback -8.02019 -1.40911 -4.91463
upperback 3.27915 -1.33589 0.0497514
thorax 8.10348 -0.909695 2.61628
lowerneck 1.75128 -8.41435 -22.6486
upperneck 36.1718 -13.4671 9.27175
head 14.6042 -8.15828 5.99028
rclavicle -2.25621e-014 -4.96962e-015
rhumerus -0.442298 -7.28775 -23.6864
rradius 102.671
rwrist 6.46263
rhand -10.6875 11.9544
rfingers 7.12502
rthumb 15.3215 -17.4581
lclavicle -2.25621e-014 -4.96962e-015
lhumerus 22.6868 12.0301 25.6667
lradius 98.643
lwrist 16.3274
lhand -10.2707 23.6293
lfingers 7.12502
lthumb 15.723 53.0106
rfemur 5.23351 -0.255181 19.5873
rtibia 38.0526
rfoot -28.3332 -8.85853
rtoes -16.555
lfemur 1.45046 -5.66634 -17.7205
ltibia 39.5082
lfoot -25.8636 -3.26238
ltoes -21.569
711
root -0.218451 16.3856 0.00902539 -14.0133 6.80961 0.213996
lowerback -7.9869 -1.41928 -5.31212
upperback 3.28579 -1.30919 0.0878738
thorax 8.10314 -0.918707 2.88485
lowerneck 1.86501 -8.26008 -22.8761
upperneck 36.2889 -13.1826 9.11548
head 14.5887 -8.08571 6.01352
rclavicle 2.74323e-014 -9.74045e-015
rhumerus -0.982513 -6.35001 -23.9671
rradius 102.019
rwrist 6.67769
rhand -11.1476 11.8872
rfingers 7.12502
rthumb 14.8783 -17.5586
lclavicle 2.74323e-014 -9.74045e-015
lhumerus 23.6282 13.3558 25.985
lradius 98.7397
lwrist 16.2486
lhand -10.5346 23.7445
lfingers 7.12502
lthumb 15.4688 53.1456
rfemur 5.18698 -0.275984 19.3674
rtibia 38.1147
rfoot -28.382 -8.7978
rtoes -17.0694
lfemur 1.49938 -5.75345 -17.9652
ltibia 39.4169
lfoot -25.8262 -3.11216
ltoes -21.6606
712
root -0.222181 16.3887 0.00542227 -13.9974 6.7076 0.262868
lowerback -7.90907 -1.40118 -5.53067
upperback 3.30387 -1.27009 0.158622
thorax 8.08278 -0.913158 3.09003
lowerneck 1.87185 -8.17771 -22.9615
upperneck 36.4214 -12.9596 8.84998
head 14.5936 -8.02828 5.9504
rclavicle 1.34925e-014 4.96962e-015
rhumerus -1.42007 -5.61607 -24.27
rradius 101.401
rwrist 6.64322
rhand -11.3978 11.9105
rfingers 7.12502
rthumb 14.6372 -17.5529
lclavicle 1.34925e-014 4.96962e-015
lhumerus 24.5025 14.6661 26.1985
lradius 98.8436
lwrist 16.1497
lhand -10.9632 23.852
lfingers 7.12502
lthumb 15.0559 53.2845
rfemur 5.11369 -0.228296 19.3264
rtibia 38.1755
rfoot -28.4306 -8.66318
rtoes -17.1474
lfemur 1.54516 -5.76371 -18.0225
ltibia 39.3132
lfoot -25.728 -3.04888
ltoes -21.2596
713
root -0.224773 16.3899 0.00177177 -13.9769 6.57481 0.341651
lowerback -7.88455 -1.38032 -5.74089
upperback 3.36618 -1.22226 0.21011
thorax 8.13948 -0.905276 3.27016
lowerneck 1.59825 -8.10994 -22.9258
upperneck 36.676 -12.6953 8.54609
head 14.694 -7.93619 5.85006
rclavicle 4.94477e-015 -7.25564e-015
rhumerus -1.73299 -5.0294 -24.6333
rradius 100.866
rwrist 6.43423
rhand -11.6412 11.9956
rfingers 7.12502
rthumb 14.4028 -17.4847
lclavicle 4.94477e-015 -7.25564e-015
lhumerus 25.3741 15.9771 26.4215
lradius 98.9943
lwrist 15.9816
lhand -10.9886 24.0304
lfingers 7.12502
lthumb 15.0314 53.4648
rfemur 5.02833 -0.156967 19.2569
rtibia 38.2358
rfoot -28.4304 -8.60041
rtoes -16.9083
lfemur 1.59546 -5.78415 -18.1267
ltibia 39.202
lfoot -25.6668 -2.87805
ltoes -21.2728
714
root -0.22601 16.3927 -0.000987853 -13.9195 6.43417 0.494874
lowerback -7.95429 -1.35913 -5.97846
upperback 3.44295 -1.16121 0.225585
thorax 8.26521 -0.893704 3.42808
lowerneck 1.30761 -8.02251 -22.8675
upperneck 36.9577 -12.4242 8.31196
head 14.8141 -7.83352 5.77884
rclavicle -4.57205e-015 2.48481e-015
rhumerus -1.95685 -4.54064 -24.9944
rradius 100.38
rwrist 6.16526
rhand -11.971 11.8769
rfingers 7.12502
rthumb 14.0849 -17.6257
lclavicle -4.57205e-015 2.48481e-015
lhumerus 26.2851 17.25 26.7398
lradius 98.9724
lwrist 15.7537
lhand -10.9681 24.0733
lfingers 7.12502
lthumb 15.0513 53.5062
rfemur 4.91569 -0.059825 19.1027
rtibia 38.2868
rfoot -28.3902 -8.51613
rtoes -16.7191
lfemur 1.62626 -5.76583 -18.3072
ltibia 39.11
lfoot -25.6306 -2.78281
ltoes -21.2245
